<svg xmlns="http://www.w3.org/2000/svg" version="1.1" xmlns:xlink="http://www.w3.org/1999/xlink" width="512" height="512" x="0" y="0" viewBox="0 0 64 64" style="enable-background:new 0 0 512 512" xml:space="preserve" class=""><g><linearGradient id="a" x1="32" x2="32" y1="63" y2="1" gradientUnits="userSpaceOnUse"><stop stop-opacity="1" stop-color="#97e0ff" offset="0"></stop><stop stop-opacity="1" stop-color="#1075ff" offset="1"></stop></linearGradient><path fill="url(#a)" d="M31 18c0-7.168-5.832-13-13-13S5 10.832 5 18s5.832 13 13 13 13-5.832 13-13zm-13 1a7.97 7.97 0 0 1 2.643.455c-.51.962-1.516 1.608-2.643 1.608s-2.133-.646-2.643-1.608A7.97 7.97 0 0 1 18 19zm-3-5c0-1.654 1.346-3 3-3s3 1.346 3 3-1.346 3-3 3-3-1.346-3-3zm4 14.949V22.95a5.022 5.022 0 0 0 3.426-2.608 7.962 7.962 0 0 1 3.45 5.321A10.962 10.962 0 0 1 19 28.949zM18 7c6.065 0 11 4.935 11 11 0 2.071-.586 4.003-1.585 5.659a9.977 9.977 0 0 0-5.978-6.045A4.977 4.977 0 0 0 23 14c0-2.757-2.243-5-5-5s-5 2.243-5 5c0 1.423.605 2.702 1.562 3.613a9.982 9.982 0 0 0-5.978 6.045A10.92 10.92 0 0 1 7 18c0-6.065 4.935-11 11-11zm-7.876 18.663a7.966 7.966 0 0 1 3.45-5.321A5.022 5.022 0 0 0 17 22.95v5.999a10.962 10.962 0 0 1-6.876-3.286zM52 5h-2V1h2zm-9.707 3.707-3-3 1.414-1.414 3 3zm17.414 0-1.414-1.414 3-3 1.414 1.414zM55 61h-2V37h-8v24h-2V47h-8v14h-2V45h-8v16h-3.026A4.948 4.948 0 0 0 23 58V42a2.994 2.994 0 0 0-1.401-2.529c.248-.437.401-.934.401-1.471v-3.495a16.933 16.933 0 0 0 6.666-3.286l5.31 5.841A4.956 4.956 0 0 0 33 40c0 2.757 2.243 5 5 5s5-2.243 5-5c0-1.083-.355-2.08-.943-2.9l6.196-6.672A2.974 2.974 0 0 0 50 31h2c1.654 0 3-1.346 3-3v-2.792c0-.669.33-1.297.861-1.639A8.962 8.962 0 0 0 60 16a9.015 9.015 0 0 0-3.006-6.714 9.038 9.038 0 0 0-7.039-2.227c-4.051.458-7.365 3.723-7.88 7.763-.447 3.508 1.118 6.865 4.084 8.761.519.331.84.97.84 1.667V28c0 .253.041.495.1.73l-6.513 7.013A4.942 4.942 0 0 0 38 35c-.931 0-1.794.273-2.541.718l-5.314-5.845C33.143 26.806 35 22.618 35 18c0-9.374-7.626-17-17-17S1 8.626 1 18c0 7.994 5.553 14.699 13 16.505V38c0 .537.153 1.034.401 1.471A2.994 2.994 0 0 0 13 42v16c0 2.757 2.243 5 5 5h45V33h-8zm-8-22h4v22h-4zM37 49h4v12h-4zm-10-2h4v14h-4zm25-18h-2c-.551 0-1-.449-1-1v-1h4v1c0 .551-.449 1-1 1zm-2-13c0-.551.449-1 1-1s1 .449 1 1-.449 1-1 1-1-.449-1-1zm-5.94-.925c.4-3.137 2.974-5.673 6.12-6.029A7.47 7.47 0 0 1 51.009 9c1.725 0 3.353.617 4.652 1.778A7.01 7.01 0 0 1 58 16a6.973 6.973 0 0 1-3.22 5.887c-1.057.68-1.702 1.833-1.767 3.113H52v-6.184A2.996 2.996 0 0 0 54 16c0-1.654-1.346-3-3-3s-3 1.346-3 3c0 1.302.839 2.402 2 2.816V25h-1.015c-.074-1.291-.711-2.439-1.748-3.102-2.309-1.475-3.526-4.089-3.177-6.823zM41 40c0 1.654-1.346 3-3 3s-3-1.346-3-3 1.346-3 3-3 3 1.346 3 3zM3 18C3 9.729 9.729 3 18 3s15 6.729 15 15-6.729 15-15 15S3 26.271 3 18zm15 17c.678 0 1.343-.051 2-.128V38c0 .551-.449 1-1 1h-2c-.551 0-1-.449-1-1v-3.128c.657.077 1.322.128 2 .128zm-3 23V42c0-.551.449-1 1-1h4c.551 0 1 .449 1 1v16c0 1.654-1.346 3-3 3s-3-1.346-3-3zm42-23h4v26h-4z" opacity="1" data-original="url(#a)" class=""></path></g></svg>