<svg xmlns="http://www.w3.org/2000/svg" version="1.1" xmlns:xlink="http://www.w3.org/1999/xlink" width="512" height="512" x="0" y="0" viewBox="0 0 512 512" style="enable-background:new 0 0 512 512" xml:space="preserve" class=""><g><linearGradient id="a" x1="256" x2="256" y1="501.136" y2="10.864" gradientUnits="userSpaceOnUse"><stop stop-opacity="1" stop-color="#9345ff" offset="0"></stop><stop stop-opacity="1" stop-color="#97e0ff" offset="0"></stop><stop stop-opacity="1" stop-color="#1075ff" offset="1"></stop></linearGradient><path fill="url(#a)" fill-rule="evenodd" d="m179.802 153.427 71.387 11.789c19.498 3.22 33.527 19.756 33.527 39.517v72.479a64.16 64.16 0 0 0-21.981-3.392l2.772-40.744c.767-11.278-8.239-20.917-19.542-20.917h-64.808l-5.667-56.661a60.58 60.58 0 0 0 4.312-2.073zm-136.43 154.76 6.242 1.973-5.244-77.083c-.767-11.278 8.238-20.917 19.542-20.917h64.81l5.661-56.599a60.342 60.342 0 0 1-4.428-2.114l-71.267 11.77c-19.498 3.22-33.526 19.756-33.526 39.517v78.599c0 11.558 7.189 21.371 18.21 24.854zM155.76 160.234l-.906.059-.906-.059a59.733 59.733 0 0 1-5.894-.676l-5.262 52.602h24.295l-5.265-52.638c-1.98.331-3.999.577-6.062.711zm46.979 197.217H11.956v14.534h197.482a63.982 63.982 0 0 1-6.699-14.534zm276.07-1.359c-15.499 15.499-36.271 22.515-56.541 21.043-3.322 8.647-18.714 28.961-34.508 32.377 7.162-13.957 11.104-27.109 9.817-38.652a72.344 72.344 0 0 1-21.299-14.768c-28.313-28.313-28.312-74.218 0-102.531 28.313-28.313 74.217-28.313 102.53 0s28.313 74.217 0 102.53zm-54.706-78.351a7 7 0 0 0 7 7h35.925a7 7 0 1 0 0-14h-35.925a7 7 0 0 0-7 7zm-43.044 0a7 7 0 0 0 7 7h14.294a7 7 0 1 0 0-14h-14.294a7 7 0 0 0-7 7zm91.641 54.968a7 7 0 0 0-7-7h-76.314a7 7 0 1 0 0 14H465.7a7 7 0 0 0 7-7zm5.574-27.484a7 7 0 0 0-7-7h-87.461a7 7 0 1 0 0 14h87.461a7 7 0 0 0 7-7zM287.024 122.68c-25.579-25.579-25.579-67.052 0-92.631 25.579-25.579 67.052-25.579 92.631 0s25.579 67.052 0 92.631c-14.003 14.003-32.769 20.341-51.082 19.011-3.001 7.812-16.907 26.164-31.176 29.251 6.47-12.61 10.033-24.492 8.87-34.92a65.36 65.36 0 0 1-19.243-13.342zm53.272-12.018a7 7 0 1 0-14 0v1.569a7 7 0 1 0 14 0zM315.918 65.4a6.976 6.976 0 0 0 7.82-6.016 9.634 9.634 0 0 1 3.208-5.993 9.653 9.653 0 0 1 6.383-2.38c2.83 0 5.588.975 7.527 3.089 2.216 2.415 2.511 6.21 1.365 9.182-.744 1.93-3.163 4.446-5.407 6.781-1.032 1.074-2.036 2.118-3.035 3.269-1.967 2.265-3.784 4.741-5.154 7.78-1.434 3.178-2.328 6.809-2.328 11.168a7 7 0 1 0 14 0c0-2.216.411-3.965 1.07-5.426.722-1.602 1.786-3.03 2.967-4.389.684-.787 1.601-1.742 2.543-2.722 3.178-3.306 6.6-6.866 8.361-11.43 3.069-7.956 1.733-17.318-4.099-23.673-4.499-4.903-11.187-7.628-17.808-7.628-5.908 0-11.376 2.203-15.571 5.879a23.602 23.602 0 0 0-7.857 14.688 6.976 6.976 0 0 0 6.016 7.82zM199.761 338.063c0 1.814.077 3.611.224 5.388H72.001a6.509 6.509 0 0 1-6.503-6.076l-7.16-105.248a5.564 5.564 0 0 1 5.575-5.967h182.052a5.564 5.564 0 0 1 5.575 5.967l-2.963 43.551c-28.027 6.917-48.816 32.225-48.816 62.386zm-32.478-46.817c0-6.799-5.546-12.344-12.344-12.344s-12.344 5.545-12.344 12.344 5.545 12.344 12.344 12.344 12.344-5.545 12.344-12.344zm-12.429-144.984c61.04-3.959 77.16-125.053 0-125.053s-61.04 121.094 0 125.053zM264.02 398.374c-52.292 0-95.225 40.043-99.828 91.136v11.624h199.656V489.51c-4.603-51.093-47.536-91.136-99.828-91.136zm0-10.052c27.682 0 50.259-22.578 50.259-50.26s-22.577-50.259-50.259-50.259-50.26 22.577-50.26 50.259 22.577 50.26 50.26 50.26z" opacity="1" data-original="url(#a)" class=""></path></g></svg>