<svg xmlns="http://www.w3.org/2000/svg" version="1.1" xmlns:xlink="http://www.w3.org/1999/xlink" width="512" height="512" x="0" y="0" viewBox="0 0 512 512" style="enable-background:new 0 0 512 512" xml:space="preserve" class=""><g><linearGradient id="a" x1="12.742" x2="456.861" y1="486.296" y2="42.177" gradientUnits="userSpaceOnUse"><stop stop-opacity="1" stop-color="#97e0ff" offset="0"></stop><stop stop-opacity="1" stop-color="#1075ff" offset="1"></stop></linearGradient><path fill="url(#a)" d="M196.167 425.345a8 8 0 0 1 8-8h92.983a8 8 0 0 1 0 16h-92.983a8 8 0 0 1-8-8zm8-26.47h81.587a8 8 0 0 0 0-16h-81.587a8 8 0 0 0 0 16zm-102.815 33.506v-48.543c0-6.81 5.54-12.35 12.35-12.35h48.542c6.81 0 12.35 5.54 12.35 12.35v48.543c0 6.81-5.54 12.35-12.35 12.35h-48.542c-6.81 0-12.35-5.54-12.35-12.35zm16-3.651h41.243v-41.242h-41.243zm25.744-115.311-8.288 8.365-2.056-2.004a7.997 7.997 0 0 0-11.313.145 8 8 0 0 0 .145 11.312l7.739 7.543a7.973 7.973 0 0 0 5.583 2.271c2.061 0 4.12-.791 5.684-2.369l13.872-14.002a8 8 0 0 0-11.366-11.261zm-41.744 36.903v-48.543c0-6.81 5.54-12.35 12.35-12.35h48.542c6.81 0 12.35 5.54 12.35 12.35v48.543c0 6.81-5.54 12.35-12.35 12.35h-48.542c-6.81 0-12.35-5.54-12.35-12.35zm16-3.65h41.243V305.43h-41.243zm25.744-115.312-8.288 8.366-2.056-2.004a7.998 7.998 0 0 0-11.312.145 7.998 7.998 0 0 0 .145 11.312l7.739 7.543a7.973 7.973 0 0 0 5.583 2.271c2.061 0 4.12-.791 5.684-2.369l13.872-14.003a8 8 0 1 0-11.366-11.26zm-41.744 36.904v-48.543c0-6.81 5.54-12.35 12.35-12.35h48.542c6.81 0 12.35 5.54 12.35 12.35v48.543c0 6.81-5.54 12.35-12.35 12.35h-48.542c-6.81 0-12.35-5.54-12.35-12.35zm16-3.651h41.243V223.37h-41.243zm25.744-115.312-8.288 8.366-2.056-2.004a8.001 8.001 0 0 0-11.168 11.458l7.739 7.543a7.977 7.977 0 0 0 5.583 2.271c2.061 0 4.12-.792 5.684-2.37l13.872-14.003a8 8 0 1 0-11.366-11.26zm-41.744 36.904v-48.542c0-6.81 5.54-12.35 12.35-12.35h48.542c6.81 0 12.35 5.54 12.35 12.35v48.542c0 6.81-5.54 12.35-12.35 12.35h-48.542c-6.81 0-12.35-5.54-12.35-12.35zm16-3.65h41.243v-41.243h-41.243zm86.815 168.731h122.592a8 8 0 0 0 0-16H204.167a8 8 0 0 0 0 16zm0-34.47h81.587a8 8 0 0 0 0-16h-81.587a8 8 0 0 0 0 16zm0-82.059h81.587a8 8 0 0 0 0-16h-81.587a8 8 0 0 0 0 16zm0-47.588h122.592a8 8 0 0 0 0-16H204.167a8 8 0 0 0 0 16zm0-34.47h81.587a8 8 0 0 0 0-16h-81.587a8 8 0 0 0 0 16zM488.47 93.935l-73.319 126.993v261.958c0 15.502-12.611 28.113-28.113 28.113H49.073c-15.501 0-28.113-12.611-28.113-28.113V79.079c0-15.501 12.612-28.113 28.113-28.113h88.767c.366-.704.793-1.382 1.302-2.013a11.899 11.899 0 0 1 9.304-4.438h34.966L172.276 28.77c-3.82-5.401-4.308-12.398-1.273-18.262s9.03-9.507 15.645-9.507h62.817c6.615 0 12.61 3.643 15.645 9.506 3.035 5.864 2.548 12.862-1.272 18.263l-11.137 15.746h34.966c3.637 0 7.028 1.619 9.305 4.44.509.63.935 1.307 1.301 2.011h88.767c15.501 0 28.113 12.612 28.113 28.113v11.099l16.704-28.931c5.299-9.177 17.076-12.333 26.253-7.034l23.329 13.469c9.178 5.3 12.333 17.077 7.034 26.254zM69.733 99.739v362.487h220.215c5.638-1.435 12.174-6.928 16.837-14.223 3.914-6.122 9.896-18.842 5.984-35.236a8.002 8.002 0 0 1 11.55-8.914c6.167 3.294 12.787 3.374 19.147.237 11.129-5.49 19.665-20.022 22.912-38.926v-64.983l-32.647 22.713c-2.51 1.747-5.395 2.629-8.291 2.629-2.495 0-4.999-.654-7.282-1.972-4.933-2.85-7.698-8.143-7.219-13.815l3.422-40.508H204.167a8 8 0 0 1 0-16h116.847l45.365-78.573V99.739H287.81c-3.645 4.013-8.884 6.451-14.678 6.451h-110.15c-5.794 0-11.033-2.438-14.679-6.451H69.734zm257.411 208.245 23.311-16.217-20.921-12.078-2.39 28.296zm-10.938 154.242h50.172v-56.749c-4.56 5.624-9.886 10.028-15.833 12.962-6.647 3.28-13.647 4.521-20.517 3.728.26 12.082-3.064 23.979-9.762 34.455a60.287 60.287 0 0 1-4.06 5.604zm141.716-347.38-28.904-16.688-94.271 163.281a7.953 7.953 0 0 1-.475 2.512l28.173 16.266 95.476-165.37zm-70.884-47.881h-89.419l-3.625 16.773h80.383a8 8 0 0 1 8 8v55.203l16.773-29.051V79.078c0-6.679-5.434-12.113-12.113-12.113zm-233.572-6.451 5.757 26.644c.398 1.841 1.873 3.031 3.757 3.031h110.15c1.884 0 3.358-1.19 3.756-3.031l5.757-26.644h-45.401a8 8 0 0 1-6.531-12.62l20.062-28.365c.379-.536.421-1.098.125-1.669-.295-.571-.778-.861-1.435-.861h-62.817c-.657 0-1.14.29-1.436.861-.295.571-.253 1.133.126 1.669l20.062 28.365a8 8 0 0 1-6.531 12.62h-45.402zm245.685 188.127-16.773 29.052v192.533a8 8 0 0 1-8 8H61.733a8 8 0 0 1-8-8V91.739a8 8 0 0 1 8-8h80.383l-3.624-16.773H49.073c-6.679 0-12.113 5.434-12.113 12.113v403.808c0 6.68 5.434 12.113 12.113 12.113h337.965c6.679 0 12.113-5.434 12.113-12.113zm74.285-167.104-23.328-13.468a3.223 3.223 0 0 0-4.397 1.178l-8.692 15.055 28.904 16.688 8.692-15.055a3.222 3.222 0 0 0-1.178-4.397z" opacity="1" data-original="url(#a)" class=""></path></g></svg>