<svg xmlns="http://www.w3.org/2000/svg" version="1.1" xmlns:xlink="http://www.w3.org/1999/xlink" width="512" height="512" x="0" y="0" viewBox="0 0 511 512" style="enable-background:new 0 0 512 512" xml:space="preserve" class=""><g><linearGradient id="a" x1=".5" x2="406.444" y1="256" y2="256" gradientUnits="userSpaceOnUse"><stop stop-opacity="1" stop-color="#97e0ff" offset="0"></stop><stop stop-opacity="1" stop-color="#1075ff" offset="1"></stop></linearGradient><path fill="url(#a)" d="M219.453 357.945 100.508 358h-.008c-11.043 0-19.996-8.945-20-19.988-.008-11.047 8.945-20.008 19.988-20.012l118.946-.055h.007c11.043 0 19.996 8.946 20 19.989.008 11.046-8.941 20.004-19.988 20.011zm-27.02 33-91.945.055c-11.047.008-19.996 8.969-19.988 20.012S89.46 431 100.5 431h.012l91.945-.055c11.047-.007 19.996-8.968 19.988-20.011-.007-11.043-8.96-19.989-20-19.989h-.011zm208.126-3.718-118.97 118.859c-.003 0-.003 0-.003.004l-.008.004c-.023.027-.055.05-.082.078-.437.43-.89.844-1.363 1.23-.121.102-.25.184-.375.282-.39.304-.785.609-1.2.886-.109.075-.226.133-.34.207-.437.282-.878.555-1.34.801-.077.04-.155.074-.23.113a21.4 21.4 0 0 1-1.543.727c-.043.02-.085.031-.128.047-.559.226-1.125.433-1.707.613-.047.012-.094.02-.137.035-.578.168-1.16.32-1.754.438-.133.027-.27.039-.406.062-.504.09-1.012.176-1.532.23-.66.067-1.324.102-1.992.102L80.508 512C36.387 512 .5 476.113.5 432V80c0-44.113 35.887-80 80-80h245.89c44.11 0 80 35.887 80 80l.024 192.996c0 11.047-8.953 20.004-20 20.004s-20-8.953-20-19.996l-.023-193c0-22.059-17.946-40.004-40-40.004H80.5c-22.055 0-40 17.945-40 40v352c0 22.055 17.945 40 40 40l166.945-.05v-48.895c0-38.598 31.403-70 70-70h68.989c.664 0 1.328.035 1.992.101.285.028.558.082.84.121.363.051.726.094 1.09.168.34.067.667.16 1.003.246.297.075.598.137.891.23.336.102.66.227.988.345.285.101.574.195.856.312.316.133.62.285.926.434.285.133.57.258.843.402.309.168.602.356.903.535.257.156.52.301.773.473.356.234.695.5 1.035.758.176.136.364.257.535.402a20.048 20.048 0 0 1 2.82 2.82c.13.16.243.332.372.496.27.356.543.707.789 1.079.152.226.281.464.426.699.199.324.398.644.582.98.129.246.238.496.355.742.164.344.332.684.48 1.036.098.238.176.48.262.718.14.375.282.746.395 1.13.07.23.12.464.18.695.105.402.214.796.292 1.203.047.246.075.496.114.742.062.394.133.789.172 1.191.035.352.039.7.054 1.051.012.297.043.59.043.895 0 .293-.03.578-.043.867-.015.36-.02.722-.054 1.082-.04.41-.114.808-.176 1.21-.04.243-.063.485-.11.723-.082.414-.19.813-.296 1.215-.063.227-.11.457-.176.684-.117.387-.262.762-.399 1.137-.086.238-.164.476-.261.714-.145.352-.317.692-.48 1.036-.118.246-.227.496-.356.738-.18.34-.383.66-.582.984-.14.235-.274.469-.422.7-.254.378-.535.738-.813 1.097-.12.156-.226.32-.351.477-.434.52-.89 1.023-1.367 1.504zm-113.114 35.828v20.636l50.68-50.636h-20.68c-16.543 0-30 13.46-30 30zM266.312 280H138.687c-10.019 0-19.39-4.457-25.714-12.23-6.356-7.81-8.82-17.946-6.77-27.817 5.676-27.332 22.676-50.11 45.422-63.851C144.012 165.688 139.5 152.863 139.5 139c0-34.738 28.262-63 63-63s63 28.262 63 63c0 13.863-4.512 26.688-12.129 37.102 22.75 13.742 39.746 36.52 45.426 63.851 2.05 9.871-.418 20.008-6.77 27.817-6.324 7.773-15.695 12.23-25.715 12.23zM179.5 139c0 12.684 10.316 23 23 23s23-10.316 23-23-10.316-23-23-23-23 10.316-23 23zm77.824 101c-8.234-22.441-29.883-38-54.3-38h-1.047c-24.418 0-46.067 15.559-54.301 38zm0 0" opacity="1" data-original="url(#a)" class=""></path></g></svg>